HIERARCHY
ROOT Hips
{
  OFFSET 0 0 0
  CHANNELS 6 Xposition Yposition Zposition Zrotation Xrotation Yrotation
  JOINT Spine
  {
    OFFSET 0.00000000 0.00000000 0.00000000
    CHANNELS 3 Zrotation Xrotation Yrotation
    JOINT Spine1
    {
      OFFSET 0.19000000 0.00000000 0.00000000
      CHANNELS 3 Zrotation Xrotation Yrotation
      JOINT Neck
      {
        OFFSET 0.22500000 0.00600000 0.00000000
        CHANNELS 3 Zrotation Xrotation Yrotation
        JOINT Head
        {
          OFFSET 0.14000000 0.00030878 0.00000000
          CHANNELS 3 Zrotation Xrotation Yrotation
          End Site
          {
            OFFSET 0.17000000 0.00000000 0.00000000
          }
        }
      }
      JOINT LeftShoulder
      {
        OFFSET 0.19800000 0.03700000 0.04300000
        CHANNELS 3 Zrotation Xrotation Yrotation
        JOINT LeftArm
        {
          OFFSET 0.08000000 0.00000000 0.00000000
          CHANNELS 3 Zrotation Xrotation Yrotation
          JOINT LeftForeArm
          {
            OFFSET 0.15200000 0.00000000 0.00000000
            CHANNELS 3 Zrotation Xrotation Yrotation
            JOINT LeftHand
            {
              OFFSET 0.17800000 0.00000000 0.00000000
              CHANNELS 3 Zrotation Xrotation Yrotation
              End Site
              {
                OFFSET 0.07200000 0.00000000 0.00000000
              }
            }
          }
        }
      }
      JOINT RightShoulder
      {
        OFFSET 0.19800000 0.03700000 -0.04300000
        CHANNELS 3 Zrotation Xrotation Yrotation
        JOINT RightArm
        {
          OFFSET 0.08000000 0.00000000 0.00151654
          CHANNELS 3 Zrotation Xrotation Yrotation
          JOINT RightForeArm
          {
            OFFSET 0.15200000 0.00000000 0.00000000
            CHANNELS 3 Zrotation Xrotation Yrotation
            JOINT RightHand
            {
              OFFSET 0.17800000 0.00000000 0.00000000
              CHANNELS 3 Zrotation Xrotation Yrotation
              End Site
              {
                OFFSET 0.07200000 0.00000000 0.00000000
              }
            }
          }
        }
      }
    }
  }
  JOINT LeftUpLeg
  {
    OFFSET 0.05984250 -0.07666000 0.04788790
    CHANNELS 3 Zrotation Xrotation Yrotation
    JOINT LeftLeg
    {
      OFFSET 0.16000000 0.00000000 0.00000000
      CHANNELS 3 Zrotation Xrotation Yrotation
      JOINT LeftFoot
      {
        OFFSET 0.18000000 0.00000000 0.00000000
        CHANNELS 3 Zrotation Xrotation Yrotation
        End Site
        {
          OFFSET 0.00000000 -0.10800000 0.00000000
        }
      }
    }
  }
  JOINT RightUpLeg
  {
    OFFSET 0.05984250 -0.07665980 -0.04788790
    CHANNELS 3 Zrotation Xrotation Yrotation
    JOINT RightLeg
    {
      OFFSET 0.16000000 0.00000000 0.00000000
      CHANNELS 3 Zrotation Xrotation Yrotation
      JOINT RightFoot
      {
        OFFSET 0.18000000 0.00000000 0.00000000
        CHANNELS 3 Zrotation Xrotation Yrotation
        End Site
        {
          OFFSET 0.00000000 -0.10800000 0.00000000
        }
      }
    }
  }
  JOINT Tail
  {
    OFFSET 0.06836960 -0.00722574 0.00000000
    CHANNELS 3 Zrotation Xrotation Yrotation
    JOINT Tail1
    {
      OFFSET 0.12000000 0.00000000 0.00000000
      CHANNELS 3 Zrotation Xrotation Yrotation
      End Site
      {
        OFFSET 0.12000000 0.00000000 0.00000000
      }
    }
  }
}
MOTION
Frames:	15
Frame Time:	0.0166667
0.0000000 0.0880441 0.0000000 -98.4045 -0.09695 0.65614 -123.212 -4.3862 -6.3348 -5.31909 -2.94419 9.41362 -5.15282 -24.7397 10.3639 -87.9216 69.9522 88.4779 -110.671 -36.4049 -139.212 74.5778 -66.709 -168.346 -77.4035 9.06022 1.83753 5.78993 0.480544 -14.8739 75.9552 -30.789 48.7377 127.099 -72.51 18.6781 -80.4546 -11.8543 -1.57719 3.95326 0.295694 -2.92938 -153.27 30.886 -5.23066 164.584 31.7994 -2.29892 0.510124 3.00734 17.7841 -124.036 -70.4917 -1.1396 27.5484 -84.1922 -137.088 -37.038 -1.15102 -23.4196 75.0595 20.9761 -1.11266 18.752 -20.1589 6.19724 
0.0012015 0.0867857 0.0044916 -98.5764 0.14371 0.58501 -122.737 -4.34092 -6.05623 -5.73725 -3.03197 9.26783 -5.13408 -24.6998 10.1104 -88.4493 69.9977 88.833 -110.559 -36.303 -139.119 74.481 -67.1118 -168.413 -78.0712 8.70289 1.90852 6.43243 0.387865 -15.4052 76.204 -30.884 49.8187 127.796 -72.4893 18.8296 -81.0659 -12.2584 -1.19537 4.47013 0.19644 -4.0867 -155.233 27.2018 -6.69179 165.154 28.1879 -2.15317 3.3132 2.4356 14.9908 -120.103 -56.0466 6.37042 153.102 -73.9113 -12.9233 -36.1731 -1.79442 -22.9277 75.0553 20.9996 -0.69783 18.8309 -20.2143 6.14606 
0.0041573 0.0866044 0.0131733 -99.3608 2.10069 1.01725 -121.196 -4.03111 -6.62202 -6.80398 -2.31694 9.34153 -5.26288 -24.6523 9.72032 -89.1923 70.2777 89.4241 -110.517 -36.357 -138.902 74.951 -67.0693 -166.12 -78.4332 8.40529 1.44201 6.73631 0.298458 -16.0256 76.2793 -30.9815 50.3043 128.704 -71.7459 19.9172 -82.2394 -12.7398 -1.02734 5.27399 0.039367 -5.44998 -155.51 28.2137 -7.13355 165.519 29.806 -1.81742 5.31322 2.23956 13.2149 -120.535 -34.6812 11.0916 161.756 -46.7756 -5.06257 -32.6889 -3.06822 -19.5898 74.8603 20.1136 1.83241 19.1103 -20.3984 5.87261 
0.0058444 0.0882130 0.0171929 -99.8094 3.68125 1.47448 -120.229 -3.71947 -7.24383 -7.48257 -1.56325 9.34924 -5.47554 -24.614 9.56347 -89.3573 70.4324 89.7314 -110.51 -36.3549 -138.886 75.3481 -66.456 -164.554 -78.1874 8.16984 1.27751 6.26818 0.308097 -16.1453 76.2345 -30.9393 50.0549 127.857 -70.871 18.7081 -82.4463 -13.26 -0.840327 5.27152 0.0182134 -6.1153 -153.698 33.1312 -6.90963 165.318 34.7704 -1.60147 4.63007 2.73562 14.5528 -121.507 -23.072 12.5677 161.913 -33.3055 -3.98013 -30.5678 -3.59915 -15.6277 74.4998 19.3094 3.85 19.3271 -20.5991 5.66242 
0.0061294 0.0885536 0.0173299 -99.7018 3.56452 1.39567 -120.217 -3.75477 -7.30073 -7.5577 -1.59788 9.468 -5.54255 -24.5802 9.56162 -89.3073 70.4816 89.717 -110.623 -36.3972 -139.102 75.6312 -66.5092 -164.621 -78.1665 7.92141 1.58133 6.26885 0.294771 -16.2515 76.1054 -30.9269 49.5657 127.194 -69.6426 17.0762 -82.5169 -13.5272 -0.738074 4.86587 0.100533 -6.45574 -153.754 32.2422 -8.04393 165.289 34.2799 -1.64751 5.2889 2.68962 14.1736 -121.152 -21.0302 12.893 161.688 -30.6168 -3.8903 -31.1315 -3.55249 -14.3629 74.3593 19.4761 3.7246 19.3223 -20.6557 5.70414 
0.0062254 0.0885064 0.0171843 -99.7551 3.52519 1.39120 -120.107 -3.80397 -7.30294 -7.69265 -1.65029 9.46383 -5.46428 -24.4809 9.46142 -89.9571 70.3531 90.1954 -110.63 -36.4185 -139.078 75.455 -66.4374 -164.368 -78.1129 8.25556 1.3474 6.25534 0.299207 -16.2239 75.8377 -30.8569 48.4748 128.156 -69.4286 19.4084 -82.9265 -13.0865 -1.3245 4.91763 0.125451 -5.73064 -153.568 32.3385 -8.03148 165.23 34.44 -1.64723 5.20889 2.66434 14.122 -121.256 -21.6374 12.7511 161.816 -31.2012 -3.89932 -30.9296 -3.57449 -14.775 74.4086 19.5104 3.67943 19.3453 -20.6686 5.731 
0.0057486 0.0883241 0.0163327 -99.6963 3.44184 1.40965 -120.176 -3.86026 -7.14105 -7.62398 -1.76977 9.28781 -5.41149 -24.446 9.43615 -90.5856 70.1835 90.5893 -110.563 -36.4332 -138.873 74.4838 -66.2477 -164.801 -78.3357 8.5421 1.06741 6.20849 0.324014 -16.182 76.026 -30.9508 49.3382 128.824 -70.9847 20.3097 -82.6661 -12.9673 -1.15481 5.2906 0.0184995 -5.47257 -153.629 32.873 -7.34979 165.222 34.7125 -1.65088 4.7139 2.74802 14.5632 -121.196 -24.8479 12.3417 161.893 -35.6145 -4.12458 -30.9513 -3.49818 -16.262 74.4425 19.4793 3.54167 19.3569 -20.6195 5.75293 
0.0055482 0.0882231 0.0147255 -99.6350 3.32344 1.41657 -120.33 -3.87923 -7.20142 -7.44923 -1.7644 9.33675 -5.4184 -24.5354 9.47313 -90.4486 70.1069 90.4362 -110.593 -36.4493 -138.922 74.0741 -66.1075 -165.574 -78.5358 8.2294 1.34075 6.21243 0.336093 -16.138 76.1887 -31.0288 50.0869 127.736 -71.0493 17.5237 -82.2674 -13.5026 -0.568842 5.04605 0.0583417 -6.09137 -153.722 33.8699 -6.62855 165.039 35.3276 -1.69291 4.38844 3.0481 15.5522 -119.927 -29.2583 11.167 161.04 -42.8827 -4.63923 -32.4225 -3.14124 -17.6477 74.4614 19.5007 3.33749 19.3336 -20.5917 5.77367 
0.0057570 0.0882652 0.0131910 -99.6220 3.20228 1.42713 -120.468 -3.85319 -7.42836 -7.28826 -1.66499 9.61963 -5.40889 -24.7211 9.52124 -89.776 70.1759 89.8133 -110.648 -36.4301 -139.104 74.4275 -66.1369 -165.882 -78.5623 7.95467 1.65839 6.25863 0.328155 -16.0164 76.2004 -31.0388 50.1491 126.754 -70.103 15.0682 -82.1536 -13.9163 -0.235177 4.6208 0.163794 -6.62225 -153.696 34.8438 -6.22574 164.758 36.0722 -1.74144 4.27943 3.35666 16.4831 -118.374 -32.6143 9.94351 159.778 -49.1237 -5.24637 -34.2841 -2.72601 -18.1503 74.4924 19.5592 3.11155 19.2889 -20.5967 5.81271 
0.0054270 0.0881736 0.0121997 -99.6431 3.10347 1.44913 -120.61 -3.83951 -7.52943 -7.13606 -1.63723 9.81509 -5.3238 -24.8263 9.47922 -89.5029 70.2139 89.4472 -110.62 -36.3717 -139.143 74.625 -66.0678 -165.468 -78.4424 8.24104 1.38281 6.26588 0.328279 -15.7739 76.3021 -31.0473 50.5281 127.141 -70.9179 16.2234 -82.0695 -13.4811 -0.406117 4.89733 0.097601 -6.08054 -153.631 35.7146 -5.71562 164.699 36.7544 -1.75373 3.90371 3.52009 17.1187 -117.396 -35.68 9.75394 158.935 -53.9575 -5.99253 -35.1166 -2.50205 -18.6338 74.6054 19.5566 2.90522 19.2561 -20.5565 5.85537 
0.0050137 0.0878330 0.0116833 -99.6559 3.01980 1.44066 -120.804 -3.85473 -7.44465 -6.94707 -1.69006 9.74353 -5.24411 -24.7733 9.37435 -89.7255 70.1361 89.5987 -110.533 -36.3145 -139.027 74.5521 -65.9084 -165.091 -78.3639 8.73358 0.974663 6.22518 0.334582 -15.5007 76.2638 -31.0331 50.3612 128.01 -71.8176 18.6428 -82.1138 -12.9227 -0.822761 5.307 0.0217979 -5.30757 -153.54 35.6666 -4.95964 164.721 36.4362 -1.72979 3.21719 3.33846 16.9489 -117.498 -38.0323 9.71965 158.604 -56.6881 -6.54698 -35.026 -2.46897 -19.4379 74.7402 19.5267 2.77891 19.2346 -20.4825 5.8506 
0.0051514 0.0876908 0.0119549 -99.6253 2.99789 1.38364 -121.007 -3.84261 -7.54833 -6.71409 -1.64476 9.89702 -5.30065 -24.8252 9.35006 -89.191 70.2927 89.162 -110.518 -36.2761 -139.061 75.3861 -66.0879 -164.769 -78.2772 8.47515 1.13053 6.37379 0.318044 -15.5745 76.2777 -31.0291 50.4019 127.085 -71.1942 17.1483 -82.1189 -13.226 -0.643134 5.17889 0.0672524 -5.89394 -153.773 34.895 -4.83302 164.751 35.6133 -1.70666 3.37312 3.17707 16.4389 -117.996 -36.3967 9.63426 159.096 -54.2908 -6.05446 -34.9593 -2.53361 -19.2478 74.7851 19.5337 2.74915 19.1673 -20.4283 5.81305 
0.0055212 0.0877488 0.0124388 -99.6158 3.01324 1.36345 -121.053 -3.79638 -7.56213 -6.63405 -1.58666 9.91184 -5.35695 -24.8225 9.38057 -88.6362 70.507 88.733 -110.55 -36.2842 -139.131 76.113 -66.3935 -164.878 -78.2461 7.92341 1.53543 6.57983 0.292558 -15.7627 76.4061 -30.9517 50.6926 126.212 -70.7611 15.7095 -82.0578 -13.5084 -0.441161 5.04997 0.11098 -6.54394 -154.2 34.5431 -5.02756 164.773 35.3752 -1.69854 4.05343 3.24936 16.318 -118.057 -33.8405 9.72603 159.526 -51.0182 -5.49611 -35.057 -2.58448 -18.5566 74.796 19.5334 2.74707 19.103 -20.4122 5.80125 
0.0053673 0.0876120 0.0121050 -99.6929 3.00094 1.42479 -120.917 -3.76651 -7.3824 -6.76107 -1.61743 9.69318 -5.29028 -24.7081 9.36366 -88.8071 70.4894 88.9173 -110.517 -36.3011 -139.012 75.6217 -66.4303 -165.258 -78.3047 8.0376 1.44863 6.56477 0.307521 -15.7288 76.3544 -30.9649 50.5366 127.023 -71.2028 17.1187 -82.1499 -13.1035 -0.666998 5.27921 0.065776 -5.99297 -154.163 35.0576 -4.6045 164.772 35.7434 -1.69939 3.79616 3.32675 16.6533 -117.608 -35.9259 9.71736 159.107 -53.7645 -5.96391 -35.1531 -2.50959 -18.9529 74.9031 19.4571 2.73861 19.101 -20.3946 5.78232 
0.0050534 0.0873963 0.0117785 -99.7691 3.01092 1.48593 -120.818 -3.73164 -7.23995 -6.85563 -1.62985 9.51594 -5.22515 -24.5447 9.22896 -89.4683 70.3231 89.4787 -110.463 -36.2875 -138.894 75.0623 -66.3953 -165.553 -78.3403 8.32951 1.2512 6.45032 0.325327 -15.5644 76.2776 -31.032 50.4084 128.013 -71.6867 18.6085 -82.2024 -12.8529 -0.837088 5.42121 0.0300749 -5.45927 -153.971 35.539 -4.28511 164.8 36.0353 -1.70421 3.35003 3.34315 16.9102 -117.552 -38.367 9.62659 158.652 -56.8211 -6.5669 -34.9971 -2.46656 -19.6128 74.9926 19.3626 2.80883 19.1294 -20.3816 5.74836 
